<svg width="244" height="119" viewBox="0 0 244 119" fill="none" xmlns="http://www.w3.org/2000/svg">
<g id="PC" clip-path="url(#clip0_127_360)">
<path id="Vector" d="M0 107.037C0 107.277 0.273919 107.469 0.616958 107.469H242.544C242.884 107.469 243.161 107.277 243.161 107.037C243.161 106.796 242.887 106.604 242.544 106.604H0.616958C0.276479 106.604 0 106.796 0 107.037Z" fill="#2F2E43"/>
<path id="Vector_2" d="M202.032 107.648H41.6406V4.42841C41.6406 1.9878 43.6272 0 46.072 0H197.6C200.043 0 202.032 1.98524 202.032 4.42841V107.648Z" fill="#2F2E41"/>
<path id="Vector_3" d="M215.382 118.613H27.8912C27.2435 118.613 26.7136 118.211 26.5369 117.587C26.3629 116.965 26.606 116.344 27.159 116.008L41.774 107.098H202.086L202.132 107.126L216.14 116.021C216.68 116.364 216.916 116.983 216.737 117.6C216.557 118.214 216.027 118.613 215.387 118.613H215.382Z" fill="#DFDFDF"/>
<path id="Vector_4" d="M197.642 6.57983H45.8469V100.886H197.642V6.57983Z" fill="white"/>
<path id="Vector_5" d="M203.494 112.949H40.7268L48.7729 106.425H195.814L203.494 112.949Z" fill="#2F2E41"/>
<path id="Vector_6" d="M160.335 117.334H83.1562L86.0823 112.949H157.409L160.335 117.334Z" fill="#2F2E41"/>
<path id="Vector_7" d="M167.239 43.8723H159.198C158.499 43.8723 157.931 43.3044 157.931 42.606C157.931 41.9075 158.499 41.3396 159.198 41.3396H167.239C167.938 41.3396 168.506 41.9075 168.506 42.606C168.506 43.3044 167.938 43.8723 167.239 43.8723Z" fill="#DFDFDF"/>
<path id="Vector_8" d="M176.486 43.8723H172.733C172.034 43.8723 171.466 43.3044 171.466 42.606C171.466 41.9075 172.034 41.3396 172.733 41.3396H176.486C177.185 41.3396 177.753 41.9075 177.753 42.606C177.753 43.3044 177.185 43.8723 176.486 43.8723Z" fill="#DFDFDF"/>
<path id="Vector_9" d="M86.7328 44.8395H62.2592C61.01 44.8395 59.9937 43.8238 59.9937 42.5754C59.9937 41.3269 61.01 40.3113 62.2592 40.3113H86.7328C87.982 40.3113 88.9983 41.3269 88.9983 42.5754C88.9983 43.8238 87.982 44.8395 86.7328 44.8395Z" fill="#6C63FF"/>
<path id="Vector_10" d="M73.4641 50.8794H61.6702C60.9099 50.8794 60.2878 50.2603 60.2878 49.4979C60.2878 48.7356 60.9074 48.1165 61.6702 48.1165H73.4641C74.2244 48.1165 74.8465 48.7356 74.8465 49.4979C74.8465 50.2603 74.227 50.8794 73.4641 50.8794Z" fill="#DFDFDF"/>
<path id="Vector_11" d="M138.483 56.3311H61.3731C60.6128 56.3311 59.9907 55.712 59.9907 54.9496C59.9907 54.1872 60.6102 53.5681 61.3731 53.5681H138.483C139.243 53.5681 139.865 54.1872 139.865 54.9496C139.865 55.712 139.245 56.3311 138.483 56.3311Z" fill="#DFDFDF"/>
<path id="Vector_12" d="M131.85 60.0152H61.3731C60.6128 60.0152 59.9907 59.3961 59.9907 58.6337C59.9907 57.8713 60.6102 57.2522 61.3731 57.2522H131.847C132.607 57.2522 133.23 57.8713 133.23 58.6337C133.23 59.3961 132.61 60.0152 131.847 60.0152H131.85Z" fill="#DFDFDF"/>
<path id="Vector_13" d="M214.717 38.9322L210.948 40.1704V34.7468H214.368L214.717 38.9322Z" fill="#F2A7AA"/>
<path id="Vector_14" d="M211.414 36.2485C213.488 36.2485 215.17 34.5682 215.17 32.4955C215.17 30.4227 213.488 28.7424 211.414 28.7424C209.34 28.7424 207.659 30.4227 207.659 32.4955C207.659 34.5682 209.34 36.2485 211.414 36.2485Z" fill="#F2A7AA"/>
<path id="Vector_15" d="M212.446 32.1246C211.816 32.1066 211.404 31.4696 211.161 30.8915C210.918 30.3107 210.664 29.6456 210.083 29.4051C209.607 29.2081 208.765 30.5307 208.388 30.1802C207.997 29.8144 208.378 27.9264 208.795 27.5887C209.213 27.251 209.781 27.1845 210.319 27.1589C211.627 27.0975 212.945 27.2049 214.228 27.471C215.021 27.6373 215.838 27.8855 216.411 28.4585C217.136 29.1851 217.323 30.2826 217.374 31.3085C217.428 32.3574 217.366 33.4574 216.857 34.3733C216.347 35.2917 215.277 35.9697 214.253 35.7343C214.151 35.1766 214.253 34.6061 214.294 34.0407C214.333 33.4753 214.294 32.8665 213.949 32.4162C213.603 31.9659 212.866 31.7894 212.464 32.1885" fill="#36344E"/>
<path id="Vector_16" d="M217.067 33.4241C217.443 33.1478 217.891 32.9201 218.354 32.9764C218.854 33.0378 219.276 33.4497 219.404 33.9357C219.532 34.4218 219.389 34.9591 219.079 35.3556C218.769 35.7521 218.311 36.0156 217.825 36.1487C217.543 36.2254 217.236 36.2561 216.967 36.141C216.573 35.9722 216.36 35.4656 216.514 35.0665" fill="#36344E"/>
<path id="Vector_17" d="M213.473 99.262H209.942V104.266H213.473V99.262Z" fill="#F2A7AA"/>
<path id="Vector_18" d="M206.504 107.298C206.133 107.298 205.803 107.287 205.554 107.264C204.618 107.177 203.722 106.487 203.271 106.082C203.069 105.901 203.005 105.612 203.11 105.361C203.184 105.182 203.335 105.049 203.522 104.995L206 104.287L210.011 101.58L210.055 101.659C210.073 101.69 210.465 102.398 210.598 102.877C210.649 103.059 210.633 103.212 210.559 103.33C210.505 103.412 210.434 103.458 210.372 103.486C210.444 103.563 210.672 103.716 211.373 103.829C212.395 103.992 212.612 102.931 212.62 102.887L212.628 102.851L212.658 102.831C213.145 102.516 213.444 102.375 213.549 102.406C213.613 102.427 213.721 102.457 214.013 105.346C214.041 105.435 214.246 106.1 214.107 106.735C213.956 107.426 210.936 107.188 210.331 107.134C210.313 107.134 208.053 107.298 206.502 107.298H206.504Z" fill="#36344E"/>
<path id="Vector_19" d="M223.523 95.3267L220.528 97.1936L223.178 101.44L226.173 99.5727L223.523 95.3267Z" fill="#F2A7AA"/>
<path id="Vector_20" d="M219.547 106.612C219.133 106.612 218.751 106.563 218.48 106.515C218.214 106.469 218.004 106.256 217.96 105.988C217.929 105.796 217.986 105.604 218.116 105.458L219.844 103.547L221.815 99.1291L221.895 99.1725C221.926 99.1879 222.635 99.5819 223.001 99.9196C223.139 100.047 223.208 100.183 223.206 100.324C223.206 100.421 223.167 100.5 223.131 100.554C223.234 100.58 223.508 100.59 224.163 100.314C225.118 99.9119 224.739 98.8963 224.724 98.8528L224.711 98.8195L224.726 98.7862C224.974 98.2618 225.151 97.9829 225.256 97.9548C225.32 97.9369 225.43 97.9087 227.204 100.204C227.276 100.265 227.801 100.72 228.021 101.334C228.259 101.999 225.568 103.396 225.028 103.67C225.01 103.683 222.197 105.727 221.042 106.308C220.584 106.538 220.041 106.61 219.547 106.61V106.612Z" fill="#36344E"/>
<path id="Vector_21" d="M216.073 57.4031H206.189L205.293 66.5925L209.218 100.544H214.263L212.246 80.9343L220.43 98.6377L224.916 95.5013L218.523 78.9747C218.523 78.9747 220.807 64.5765 219.012 60.9898C217.218 57.4031 216.073 57.4031 216.073 57.4031Z" fill="#36344E"/>
<path id="Vector_22" d="M220.989 57.9635H205.291L210.001 37.6838H216.839L220.989 57.9635Z" fill="#6C63FF"/>
<path id="uuid-52db3307-ec3e-496d-a5d4-9d1f33ffc652-45-45-44" d="M201.392 37.282C201.141 36.0489 201.599 34.9207 202.416 34.7646C203.233 34.6086 204.095 35.481 204.346 36.7166C204.454 37.2078 204.436 37.7169 204.297 38.203L205.291 43.445L202.726 43.8492L202.019 38.6405C201.702 38.2439 201.487 37.7783 201.392 37.282Z" fill="#F2A7AA"/>
<path id="Vector_23" d="M216.672 37.6838H210.641L206.576 45.8116L205.042 39.7228L201.673 40.081C201.673 40.081 202.47 51.9796 205.956 51.578C209.44 51.1763 217.568 40.4545 216.675 37.6864L216.672 37.6838Z" fill="#6C63FF"/>
<path id="uuid-2800d917-a06e-4fc6-b661-0f9df9cadefc-46-46-45" d="M223.411 68.5906C223.661 69.8237 223.203 70.9519 222.387 71.108C221.57 71.264 220.707 70.3916 220.456 69.156C220.349 68.6648 220.367 68.1557 220.505 67.6696L219.512 62.4276L222.077 62.0234L222.783 67.2321C223.101 67.6287 223.316 68.0943 223.411 68.5906Z" fill="#F2A7AA"/>
<path id="Vector_24" d="M213.234 37.6837C213.234 37.6837 216.662 37.5379 216.839 37.6837C217.773 38.4486 223.262 65.9938 223.262 65.9938H219.786L213.232 37.6837H213.234Z" fill="#6C63FF"/>
</g>
<defs>
<clipPath id="clip0_127_360">
<rect width="243.161" height="118.613" fill="white"/>
</clipPath>
</defs>
</svg>
