<svg width="118" height="161" viewBox="0 0 118 161" fill="none" xmlns="http://www.w3.org/2000/svg">
<g id="Phone" clip-path="url(#clip0_127_336)">
<path id="Vector" d="M103.632 159.894H52.6594C45.2452 159.894 39.2141 153.867 39.2141 146.458V13.4364C39.2141 6.02712 45.2452 0 52.6594 0H103.632C111.046 0 117.077 6.02712 117.077 13.4364V146.458C117.077 153.867 111.046 159.894 103.632 159.894Z" fill="#DADBDC"/>
<path id="Vector_2" d="M103.669 156.257H52.6222C47.1349 156.257 42.6689 151.794 42.6689 146.31V13.3229C42.6689 7.83919 47.1349 3.37622 52.6222 3.37622H103.669C109.156 3.37622 113.622 7.83919 113.622 13.3229V146.31C113.622 151.794 109.156 156.257 103.669 156.257Z" fill="white"/>
<path id="Vector_3" d="M85.3645 12.2285H70.9294C69.0237 12.2285 67.4744 10.6801 67.4744 8.77573C67.4744 6.87132 69.0237 5.323 70.9294 5.323H85.3645C87.2701 5.323 88.8195 6.87132 88.8195 8.77573C88.8195 10.6801 87.2701 12.2285 85.3645 12.2285Z" fill="#DADBDC"/>
<path id="Vector_4" d="M100.095 52.8383H57.8565C57.0198 52.8383 56.3389 51.9732 56.3389 50.9128C56.3389 49.8525 57.0198 48.9873 57.8565 48.9873H100.095C100.932 48.9873 101.613 49.8525 101.613 50.9128C101.613 51.9732 100.932 52.8383 100.095 52.8383Z" fill="#DADBDC"/>
<path id="Vector_5" d="M100.095 61.371H57.8565C57.0198 61.371 56.3389 60.5059 56.3389 59.4455C56.3389 58.3852 57.0198 57.52 57.8565 57.52H100.095C100.932 57.52 101.613 58.3852 101.613 59.4455C101.613 60.5059 100.932 61.371 100.095 61.371Z" fill="#DADBDC"/>
<path id="Vector_6" d="M87.983 69.904H57.8565C57.0198 69.904 56.3389 69.0388 56.3389 67.9785C56.3389 66.9181 57.0198 66.053 57.8565 66.053H87.983C88.8197 66.053 89.5007 66.9181 89.5007 67.9785C89.5007 69.0388 88.8197 69.904 87.983 69.904Z" fill="#DADBDC"/>
<path id="Vector_7" d="M78.1457 120.073C88.1034 120.073 96.1757 112.006 96.1757 102.055C96.1757 92.1038 88.1034 84.0369 78.1457 84.0369C68.188 84.0369 60.1157 92.1038 60.1157 102.055C60.1157 112.006 68.188 120.073 78.1457 120.073Z" fill="#6C63FF"/>
<path id="Vector_8" d="M73.3501 102.43C74.2818 104.252 75.2135 106.077 76.1452 107.9C76.4118 108.425 77.1957 108.259 77.3515 107.742C78.5735 103.669 80.8434 99.958 83.9025 97.0065C84.5149 96.4156 83.5805 95.4845 82.9682 96.0727C79.7481 99.1799 77.3647 103.107 76.0766 107.391L77.2828 107.233C76.3511 105.41 75.4194 103.585 74.4877 101.762C74.1023 101.005 72.9621 101.673 73.3475 102.427H73.3501V102.43Z" fill="white"/>
<path id="Vector_9" d="M29.5406 80.2597L25.1697 81.75L25.1011 75.4433L29.0787 75.3984L29.5406 80.2597Z" fill="#F3A3A6"/>
<path id="Vector_10" d="M25.6131 77.184C28.0271 77.184 29.984 75.2284 29.984 72.816C29.984 70.4036 28.0271 68.448 25.6131 68.448C23.1991 68.448 21.2422 70.4036 21.2422 72.816C21.2422 75.2284 23.1991 77.184 25.6131 77.184Z" fill="#F3A3A6"/>
<path id="Vector_11" d="M26.8088 72.3703C26.0777 72.3571 25.5894 71.6238 25.2964 70.9512C25.0034 70.2812 24.7025 69.5084 24.0242 69.2367C23.4673 69.0151 22.5065 70.5635 22.0631 70.1599C21.6012 69.7379 22.0235 67.538 22.5039 67.1397C22.9843 66.7414 23.6467 66.657 24.2697 66.6201C25.7926 66.5331 27.3235 66.6386 28.82 66.934C29.7438 67.116 30.6993 67.3956 31.3724 68.055C32.2249 68.8912 32.4545 70.1652 32.5284 71.3574C32.605 72.576 32.5469 73.8553 31.9662 74.9315C31.3829 76.005 30.1503 76.8069 28.9546 76.5484C28.828 75.9021 28.9415 75.2374 28.981 74.578C29.0206 73.9212 28.9626 73.2117 28.5561 72.6921C28.1496 72.1725 27.2892 71.9746 26.8273 72.4441" fill="#2F2E43"/>
<path id="Vector_12" d="M32.2011 73.8237C32.634 73.4992 33.154 73.2249 33.6924 73.2856C34.2757 73.3489 34.772 73.8237 34.9277 74.3881C35.0834 74.9526 34.9224 75.5777 34.5687 76.0446C34.215 76.5115 33.6845 76.8227 33.1197 76.981C32.7924 77.0733 32.4361 77.1129 32.122 76.981C31.6601 76.7884 31.4067 76.2055 31.5809 75.736" fill="#2F2E43"/>
<path id="uuid-aacd27ab-43c3-4d3d-aa57-4e8c94c3c81e-46" d="M15.9369 115.09C15.6624 116.528 16.2087 117.834 17.1616 118.005C18.1118 118.176 19.1068 117.148 19.3813 115.71C19.5001 115.138 19.4737 114.544 19.3048 113.983L22.6674 91.454L18.1382 90.6548L16.6469 113.505C16.2826 113.972 16.0372 114.515 15.9369 115.093V115.09Z" fill="#F3A3A6"/>
<path id="Vector_13" d="M25.0904 78.8564L22.0049 78.8907C19.8273 79.2442 19.2467 80.4153 18.7768 82.5677C18.0563 85.8516 17.1377 90.2275 17.3304 90.2882C17.6392 90.3884 22.9181 92.7993 25.5892 92.2032L25.0904 78.8564Z" fill="#6C63FF"/>
<path id="Vector_14" d="M28.8797 150.457L24.7729 150.502L24.838 156.323L28.9447 156.278L28.8797 150.457Z" fill="#F3A3A6"/>
<path id="Vector_15" d="M20.8672 159.894C20.4343 159.899 20.0516 159.894 19.7613 159.87C18.6686 159.783 17.6207 158.989 17.0902 158.525C16.8526 158.317 16.7734 157.979 16.8922 157.689C16.9767 157.481 17.1509 157.322 17.3673 157.257L20.2417 156.402L24.8739 153.202L24.9267 153.295C24.9478 153.329 25.4149 154.149 25.5733 154.706C25.634 154.917 25.6208 155.094 25.5337 155.231C25.473 155.326 25.3886 155.381 25.3199 155.415C25.4044 155.502 25.671 155.679 26.4892 155.801C27.6796 155.977 27.9198 154.74 27.9277 154.687L27.9356 154.645L27.9699 154.621C28.5321 154.25 28.8779 154.081 28.9993 154.115C29.0758 154.136 29.1999 154.173 29.5747 157.528C29.609 157.634 29.8545 158.404 29.7014 159.145C29.5351 159.952 26.0167 159.712 25.3147 159.657C25.2935 159.659 22.6647 159.876 20.8619 159.894H20.8672Z" fill="#2F2E43"/>
<path id="Vector_16" d="M40.5218 145.743L37.0615 147.954L40.1991 152.859L43.6594 150.648L40.5218 145.743Z" fill="#F3A3A6"/>
<path id="Vector_17" d="M36.0309 158.926C35.5479 158.931 35.1045 158.879 34.7878 158.826C34.4763 158.773 34.2308 158.53 34.178 158.219C34.1385 157.995 34.2044 157.771 34.3522 157.602L36.3371 155.357L38.5727 150.193L38.6677 150.243C38.702 150.261 39.5335 150.71 39.9637 151.097C40.1273 151.245 40.2091 151.401 40.2091 151.564C40.2091 151.678 40.1669 151.77 40.1247 151.833C40.2435 151.862 40.5628 151.87 41.3204 151.541C42.4236 151.06 41.9723 149.884 41.9512 149.837L41.9353 149.797L41.9538 149.76C42.2336 149.148 42.4395 148.821 42.5582 148.784C42.6348 148.763 42.7588 148.726 44.8546 151.374C44.939 151.446 45.5566 151.968 45.8179 152.677C46.103 153.45 42.9938 155.107 42.3656 155.431C42.3471 155.447 39.098 157.86 37.7624 158.552C37.2319 158.826 36.601 158.916 36.0256 158.921L36.0309 158.926Z" fill="#2F2E43"/>
<path id="Vector_18" d="M31.3538 101.73L19.8564 101.857L18.9326 112.555L23.937 151.999L29.8071 151.934L27.2072 129.149L36.9573 149.639L42.1332 145.93L34.4842 126.786C34.4842 126.786 36.9547 110.007 34.822 105.858C32.6893 101.709 31.3564 101.725 31.3564 101.725V101.73H31.3538Z" fill="#2F2E43"/>
<path id="Vector_19" d="M37.0789 102.319L18.8193 102.522L24.0349 78.8697L31.9928 78.78L37.0789 102.319Z" fill="#6C63FF"/>
<path id="uuid-36382701-bf34-46f2-bbf2-9fa794ab079f-47" d="M38.863 114.837C39.1692 116.269 38.6518 117.586 37.7043 117.778C36.7567 117.971 35.7405 116.966 35.4344 115.534C35.3024 114.964 35.3156 114.37 35.4713 113.803L31.6072 91.3538L36.118 90.4543L38.116 113.268C38.4908 113.727 38.7468 114.265 38.863 114.84V114.837Z" fill="#F3A3A6"/>
<path id="Vector_20" d="M28.9071 78.8143L31.9926 78.78C34.1781 79.086 34.7825 80.2439 35.3025 82.3857C36.0943 85.6538 37.1105 90.006 36.9205 90.072C36.6116 90.1775 31.3908 92.7044 28.7065 92.1689L28.9098 78.8143H28.9071Z" fill="#6C63FF"/>
<path id="Vector_21" d="M56.7689 159.894C56.7689 160.036 56.6528 160.152 56.5103 160.152H0.258665C0.116135 160.152 0 160.036 0 159.894C0 159.752 0.116135 159.635 0.258665 159.635H56.5103C56.6528 159.635 56.7689 159.752 56.7689 159.894Z" fill="#3F3D58"/>
</g>
<defs>
<clipPath id="clip0_127_336">
<rect width="117.077" height="160.153" fill="white"/>
</clipPath>
</defs>
</svg>
