<svg width="245" height="150" viewBox="0 0 245 150" fill="none" xmlns="http://www.w3.org/2000/svg">
<g id="Search" clip-path="url(#clip0_127_314)">
<path id="Vector" d="M191.585 23.281C191.585 23.281 186.21 23.8864 185.863 32.2035C185.573 39.1348 184.983 42.9971 187.806 44.4429C188.814 44.9596 189.999 45.004 191.078 44.6516L202.594 40.8676C202.594 40.8676 202.767 28.3933 198.779 25.3609C194.791 22.3284 191.585 23.281 191.585 23.281Z" fill="#36344E"/>
<path id="Vector_2" d="M197.933 42.3969L192.104 44.3124V35.9275H197.392L197.933 42.3969Z" fill="#FAAFB2"/>
<path id="uuid-ea0a1472-32fb-4242-948a-de51795c4bd3-46-44-46-72-78-43-43-48" d="M180.115 89.9923C179.799 91.9131 178.517 93.291 177.253 93.0692C175.986 92.8473 175.219 91.1093 175.535 89.1886C175.65 88.4187 175.955 87.6906 176.423 87.0669L177.867 78.9456L181.797 79.7676L179.956 87.6854C180.199 88.4344 180.253 89.2251 180.115 89.9923Z" fill="#FAAFB2"/>
<path id="Vector_3" d="M193.459 143.994H188.002L184.834 114.844H193.274L193.459 143.994Z" fill="#FAAFB2"/>
<path id="Vector_4" d="M182.685 148.679C182.11 148.679 181.598 148.666 181.215 148.629C179.765 148.496 178.381 147.426 177.687 146.802C177.376 146.523 177.274 146.074 177.436 145.688C177.553 145.411 177.786 145.205 178.076 145.122L181.907 144.028L188.111 139.845L188.182 139.97C188.208 140.017 188.816 141.113 189.02 141.854C189.098 142.136 189.077 142.371 188.96 142.554C188.879 142.679 188.764 142.752 188.673 142.794C188.785 142.911 189.138 143.149 190.221 143.321C191.806 143.572 192.135 141.933 192.151 141.865L192.162 141.81L192.209 141.779C192.961 141.293 193.425 141.074 193.585 141.121C193.684 141.15 193.851 141.202 194.3 145.665C194.345 145.805 194.661 146.831 194.447 147.815C194.214 148.885 189.542 148.517 188.607 148.431C188.581 148.433 185.085 148.681 182.687 148.681H182.685V148.679Z" fill="#36344E"/>
<path id="Vector_5" d="M205.793 143.994H200.333L197.168 114.844H205.605L205.793 143.994Z" fill="#FAAFB2"/>
<path id="Vector_6" d="M195.018 148.679C194.444 148.679 193.932 148.666 193.548 148.629C192.099 148.496 190.715 147.426 190.02 146.802C189.71 146.523 189.608 146.074 189.77 145.688C189.887 145.411 190.119 145.205 190.409 145.122L194.24 144.028L200.445 139.845L200.515 139.97C200.542 140.017 201.15 141.113 201.354 141.854C201.432 142.136 201.411 142.371 201.294 142.554C201.213 142.679 201.098 142.752 201.006 142.794C201.119 142.911 201.471 143.149 202.555 143.321C204.14 143.572 204.469 141.933 204.485 141.865L204.495 141.81L204.542 141.779C205.297 141.293 205.759 141.074 205.919 141.121C206.018 141.15 206.185 141.202 206.634 145.665C206.678 145.805 206.994 146.831 206.78 147.815C206.548 148.885 201.876 148.517 200.941 148.431C200.915 148.433 197.418 148.681 195.021 148.681H195.018V148.679Z" fill="#36344E"/>
<path id="Vector_7" d="M207.363 72.398H180.839L190.373 41.04H200.949L207.363 72.398Z" fill="#DFDFE0"/>
<path id="Vector_8" d="M192.042 41.0426C192.042 41.0426 185.453 40.8703 184.761 42.6032C184.069 44.336 175.919 85.5716 175.919 85.5716H181.293L192.042 41.0452V41.0426Z" fill="#DFDFE0"/>
<path id="Vector_9" d="M192.825 38.2475C196.032 38.2475 198.633 35.649 198.633 32.4436C198.633 29.2382 196.032 26.6396 192.825 26.6396C189.617 26.6396 187.017 29.2382 187.017 32.4436C187.017 35.649 189.617 38.2475 192.825 38.2475Z" fill="#FAAFB2"/>
<path id="Vector_10" d="M191.237 25.447C191.237 25.447 188.041 38.4171 191.595 44.4794L186.589 43.4173C186.589 43.4173 184.649 29.2232 188.55 26.6423L191.237 25.447Z" fill="#36344E"/>
<path id="Vector_11" d="M201.85 72.3979H184.442L174.918 111.462C174.743 113.112 175.791 114.651 177.394 115.082C182.619 116.481 195.159 118.461 214.137 112.942C215.962 112.412 216.999 110.486 216.427 108.673L201.85 72.3979Z" fill="#36344E"/>
<path id="Vector_12" d="M194.812 41.04L200.225 40.8025C202.57 40.9799 204.691 42.2535 205.947 44.2394C209.773 50.2835 216.931 63.0213 210.541 64.7672C202.116 67.0663 198.034 54.2658 198.034 54.2658L194.812 41.04Z" fill="#DFDFE0"/>
<path id="uuid-298a271f-a3d1-4ea5-9ac1-ac2853dfa275-47-45-47-73-79-44-44-49" d="M192.955 44.8345C191.843 43.2374 191.804 41.3558 192.864 40.6329C193.927 39.91 195.69 40.6225 196.802 42.2196C197.256 42.8511 197.544 43.5871 197.643 44.3595L202.268 51.1917L198.875 53.3394L194.676 46.3768C193.979 46.0088 193.389 45.4791 192.955 44.8345Z" fill="#FAAFB2"/>
<path id="Vector_13" d="M195.692 50.3591L199.513 46.8464L207.067 53.8743L200.043 58.6735L195.692 50.3591Z" fill="#DFDFE0"/>
<path id="Vector_14" d="M8.49604 33.0464H128.428C133.102 33.0464 136.891 36.833 136.891 41.5044C136.891 46.1757 133.102 49.9623 128.428 49.9623H8.49604C3.82162 49.9623 0.0324707 46.1757 0.0324707 41.5044C0.0324707 36.833 3.82162 33.0464 8.49604 33.0464Z" fill="#6C63FF"/>
<path id="Vector_15" d="M53.125 148.739C53.125 148.911 53.2634 149.049 53.4358 149.049H243.883C244.055 149.049 244.194 148.911 244.194 148.739C244.194 148.567 244.055 148.428 243.883 148.428H53.4358C53.2634 148.428 53.125 148.567 53.125 148.739Z" fill="#484565"/>
<path id="Vector_16" d="M110.918 24.5181H135.818C136.413 24.5181 136.894 24.9982 136.894 25.5906C136.894 26.183 136.413 26.6632 135.818 26.6632H110.918C110.323 26.6632 109.842 26.183 109.842 25.5906C109.842 24.9982 110.323 24.5181 110.918 24.5181Z" fill="#DFDFE0"/>
<path id="Vector_17" d="M1.10837 0H26.0081C26.6035 0 27.084 0.480181 27.084 1.07258C27.084 1.66498 26.6035 2.14516 26.0081 2.14516H1.10837C0.51297 2.14777 0.0324707 1.66759 0.0324707 1.07258C0.0324707 0.480181 0.51297 0 1.10837 0Z" fill="#DFDFE0"/>
<path id="Vector_18" d="M1.10837 9.37134H74.1938C74.7892 9.37134 75.2697 9.85152 75.2697 10.4465C75.2697 11.0389 74.7892 11.5191 74.1938 11.5191H1.10837C0.51297 11.5191 0.0324707 11.0389 0.0324707 10.4465C0.0324707 9.85413 0.51297 9.37134 1.10837 9.37134Z" fill="#DFDFE0"/>
<path id="Vector_19" d="M61.0793 68.0815C61.0793 73.708 65.6441 78.2697 71.2743 78.2697C72.9795 78.2697 74.5855 77.8522 75.9957 77.1136L85.8747 92.7717C86.4805 93.7295 87.7732 93.9696 88.6819 93.291C89.5306 92.6569 89.7134 91.4616 89.0945 90.6005L78.2285 75.5295C80.221 73.6688 81.4692 71.02 81.4692 68.0815C81.4692 62.455 76.9045 57.8933 71.2743 57.8933C65.6441 57.8933 61.0793 62.455 61.0793 68.0815ZM62.4791 68.0815C62.4791 63.2275 66.4171 59.2895 71.2769 59.2895C76.1367 59.2895 80.0747 63.2249 80.0747 68.0815C80.0747 72.9355 76.1367 76.8735 71.2769 76.8735C66.4197 76.8735 62.4791 72.9381 62.4791 68.0815Z" fill="#484662"/>
</g>
<defs>
<clipPath id="clip0_127_314">
<rect width="244.161" height="149.049" fill="white" transform="translate(0.0324707)"/>
</clipPath>
</defs>
</svg>
