<svg width="93" height="90" viewBox="0 0 93 90" fill="none" xmlns="http://www.w3.org/2000/svg">
<g id="Vector" filter="url(#filter0_d_86_85)">
<path d="M60 63C61.5913 63 63.1174 63.6321 64.2426 64.7574C65.3679 65.8826 66 67.4087 66 69C66 67.4087 66.6321 65.8826 67.7574 64.7574C68.8826 63.6321 70.4087 63 72 63C70.4087 63 68.8826 62.3679 67.7574 61.2426C66.6321 60.1174 66 58.5913 66 57C66 58.5913 65.3679 60.1174 64.2426 61.2426C63.1174 62.3679 61.5913 63 60 63ZM60 27C61.5913 27 63.1174 27.6321 64.2426 28.7574C65.3679 29.8826 66 31.4087 66 33C66 31.4087 66.6321 29.8826 67.7574 28.7574C68.8826 27.6321 70.4087 27 72 27C70.4087 27 68.8826 26.3679 67.7574 25.2426C66.6321 24.1174 66 22.5913 66 21C66 22.5913 65.3679 24.1174 64.2426 25.2426C63.1174 26.3679 61.5913 27 60 27ZM39 63C39 58.2261 40.8964 53.6477 44.2721 50.2721C47.6477 46.8964 52.2261 45 57 45C52.2261 45 47.6477 43.1036 44.2721 39.7279C40.8964 36.3523 39 31.7739 39 27C39 31.7739 37.1036 36.3523 33.7279 39.7279C30.3523 43.1036 25.7739 45 21 45C25.7739 45 30.3523 46.8964 33.7279 50.2721C37.1036 53.6477 39 58.2261 39 63Z" stroke="#C5AEF2" stroke-width="6" stroke-linecap="round" stroke-linejoin="round" shape-rendering="crispEdges"/>
</g>
<defs>
<filter id="filter0_d_86_85" x="0" y="0" width="93" height="90" filterUnits="userSpaceOnUse" color-interpolation-filters="sRGB">
<feFlood flood-opacity="0" result="BackgroundImageFix"/>
<feColorMatrix in="SourceAlpha" type="matrix" values="0 0 0 0 0 0 0 0 0 0 0 0 0 0 0 0 0 0 127 0" result="hardAlpha"/>
<feOffset/>
<feGaussianBlur stdDeviation="9"/>
<feComposite in2="hardAlpha" operator="out"/>
<feColorMatrix type="matrix" values="0 0 0 0 0.772549 0 0 0 0 0.682353 0 0 0 0 0.94902 0 0 0 1 0"/>
<feBlend mode="normal" in2="BackgroundImageFix" result="effect1_dropShadow_86_85"/>
<feBlend mode="normal" in="SourceGraphic" in2="effect1_dropShadow_86_85" result="shape"/>
</filter>
</defs>
</svg>
